<svg version="1.1" id="Layer_1" xmlns="http://www.w3.org/2000/svg" xmlns:xlink="http://www.w3.org/1999/xlink" x="0px" y="0px"
	 width="100%" viewBox="0 0 2316 681" xml:space="preserve">
<path fill="#F4F3F1" opacity="0.000000" stroke="none" 
	d="
M1509.000000,682.000000 
	C1006.000000,682.000000 503.500000,682.000000 1.000000,682.000000 
	C1.000000,455.000000 1.000000,228.000000 1.000000,1.000000 
	C773.000000,1.000000 1545.000000,1.000000 2317.000000,1.000000 
	C2317.000000,228.000000 2317.000000,455.000000 2317.000000,682.000000 
	C2047.833374,682.000000 1778.666626,682.000000 1509.000000,682.000000 
M1428.498657,521.295898 
	C1435.661011,521.244141 1442.840576,521.492065 1449.982422,521.082581 
	C1468.877563,519.999146 1487.346558,516.903381 1503.890137,506.951233 
	C1510.062988,503.237915 1515.793945,498.790131 1522.071167,494.438293 
	C1522.437378,507.231110 1521.823853,519.770447 1517.322144,531.758240 
	C1513.205200,542.721436 1505.452271,550.198547 1493.998535,553.090881 
	C1487.112915,554.829590 1480.021729,556.627319 1472.991821,556.761108 
	C1449.855591,557.201172 1426.698975,557.186768 1403.563232,556.712585 
	C1395.657959,556.550476 1387.650513,555.085876 1379.942383,553.189514 
	C1370.228760,550.799927 1366.416138,545.599182 1365.913452,535.731628 
	C1365.754639,532.615051 1365.078003,531.469177 1361.605225,531.495483 
	C1336.606934,531.684998 1311.606812,531.612976 1286.607178,531.623596 
	C1284.857300,531.624329 1283.107300,531.623657 1281.033569,531.623657 
	C1281.573853,558.695251 1289.629395,581.955383 1308.135376,601.105469 
	C1327.741699,621.394165 1352.604004,631.394714 1379.539673,637.126587 
	C1404.157715,642.365356 1429.166626,642.103577 1454.154175,642.007324 
	C1479.827759,641.908447 1504.859009,638.552979 1528.582520,628.020752 
	C1556.767944,615.507690 1577.705688,595.407532 1591.151978,567.748901 
	C1602.955078,543.469849 1606.954590,517.413391 1606.972290,490.675262 
	C1607.039307,389.009888 1606.998657,287.344421 1606.998291,185.679001 
	C1606.998291,183.909332 1606.998291,182.139679 1606.998291,180.298691 
	C1578.611694,180.298691 1550.860962,180.298691 1522.619385,180.298691 
	C1522.619385,182.717819 1522.625366,184.850647 1522.618530,186.983459 
	C1522.413574,250.473038 1522.395996,313.964386 1521.800903,377.450317 
	C1521.709961,387.139587 1519.876831,397.066833 1517.229492,406.425842 
	C1511.357178,427.186523 1496.912964,437.760864 1475.360840,438.104858 
	C1460.698242,438.338867 1446.023682,438.388763 1431.363403,438.088837 
	C1404.445679,437.538177 1382.739258,421.167694 1373.667847,395.727509 
	C1368.278931,380.614471 1366.224854,365.077362 1366.191284,349.222961 
	C1366.076416,294.890533 1366.147461,240.557709 1366.147583,186.225037 
	C1366.147583,184.289658 1366.147583,182.354279 1366.147583,180.306534 
	C1337.753174,180.306534 1310.014893,180.306534 1281.852173,180.306534 
	C1281.852173,182.575714 1281.852173,184.541229 1281.852173,186.506744 
	C1281.852905,244.506042 1281.782104,302.505493 1281.912476,360.504517 
	C1281.939819,372.646820 1282.220947,384.828796 1283.245239,396.919617 
	C1284.965942,417.232910 1289.555908,436.892090 1298.892578,455.228119 
	C1311.565552,480.116119 1330.825806,497.711884 1356.759033,508.152893 
	C1379.483887,517.302185 1403.193481,520.806763 1428.498657,521.295898 
M1026.500000,377.142639 
	C1101.585571,377.142639 1176.671265,377.142639 1252.142456,377.142639 
	C1252.142456,366.944641 1252.154907,357.473206 1252.140137,348.001831 
	C1252.097778,320.710297 1248.872070,293.924316 1238.914429,268.299469 
	C1230.002686,245.366150 1216.428589,225.733292 1196.865967,210.537231 
	C1177.716431,195.662125 1155.834106,186.871078 1132.265259,181.985840 
	C1106.132080,176.569092 1079.756470,175.775543 1053.237793,178.121933 
	C1031.585083,180.037811 1010.513977,184.616074 990.739380,193.734009 
	C947.244141,213.789337 922.913025,248.802307 912.924927,294.808044 
	C907.000366,322.096985 906.474060,349.632782 909.054749,377.279205 
	C911.231262,400.595551 916.635864,423.075775 927.281738,444.155029 
	C947.296326,483.784821 980.375549,506.062592 1022.627380,515.996338 
	C1053.596802,523.277405 1084.957764,523.741089 1116.421265,519.948364 
	C1134.652100,517.750732 1152.376343,513.341125 1169.188354,505.864655 
	C1199.607666,492.336823 1222.114990,470.769531 1235.304199,439.895264 
	C1240.154419,428.541473 1243.485962,416.792786 1245.475342,403.849976 
	C1243.211548,403.849976 1241.436035,403.849854 1239.660522,403.849976 
	C1214.829834,403.851471 1189.998535,403.926453 1165.168823,403.772888 
	C1161.576294,403.750702 1159.645386,404.969238 1157.652954,407.941681 
	C1144.824951,427.079041 1126.657104,437.145172 1103.705322,437.942596 
	C1088.724609,438.463074 1073.713257,438.207916 1058.716431,438.127258 
	C1035.752441,438.003815 1017.110107,428.887543 1003.311890,410.500275 
	C995.979797,400.729675 991.323181,389.666626 989.018250,377.142792 
	C1001.536560,377.142792 1013.518311,377.142792 1026.500000,377.142639 
M1789.578491,179.459839 
	C1774.939209,191.963806 1760.223511,204.379745 1745.686401,217.001450 
	C1735.271484,226.043930 1725.142090,235.414291 1714.802979,244.545120 
	C1698.988892,258.511108 1683.109253,272.403137 1667.246826,286.314301 
	C1654.632202,297.377167 1642.069458,308.500977 1629.332520,319.421326 
	C1625.907837,322.357605 1624.147461,325.585846 1624.152344,330.145721 
	C1624.217407,392.302185 1624.188843,454.458771 1624.208008,516.615295 
	C1624.209961,523.131775 1624.987549,523.865540 1631.336060,523.867126 
	C1660.997925,523.874573 1690.659668,523.872131 1720.321533,523.872742 
	C1749.316772,523.873413 1778.312256,523.840515 1807.307251,523.912537 
	C1811.282593,523.922363 1814.315430,522.975525 1816.461670,519.251526 
	C1820.000000,513.112244 1824.064819,507.277802 1827.643921,501.160553 
	C1837.913940,483.607086 1848.029297,465.963135 1858.260864,448.387085 
	C1860.296509,444.890381 1862.208496,444.979950 1864.337769,448.514587 
	C1868.341919,455.161224 1872.340454,461.811462 1876.289795,468.490692 
	C1886.220825,485.286011 1896.257202,502.021790 1905.934326,518.962524 
	C1908.100586,522.754883 1910.723145,523.918762 1914.764771,523.914490 
	C1973.921753,523.851624 2033.078979,523.834290 2092.235596,523.945618 
	C2096.565186,523.953735 2098.052979,522.621643 2098.045898,518.235291 
	C2097.944092,454.912476 2098.006348,391.589355 2097.863037,328.266693 
	C2097.857910,326.080658 2096.674805,323.325287 2095.101318,321.813080 
	C2088.034424,315.021759 2080.648193,308.560944 2073.337402,302.025238 
	C2063.922852,293.608490 2054.527344,285.168762 2045.022095,276.854889 
	C2025.143555,259.467926 2005.135376,242.228989 1985.300903,224.792099 
	C1969.326294,210.748459 1953.623779,196.393646 1937.544556,182.472473 
	C1935.268188,180.501602 1931.569214,179.395203 1928.478638,179.284912 
	C1917.827393,178.904755 1907.152832,179.240570 1896.489258,179.123581 
	C1880.489258,178.948059 1883.182495,179.629837 1883.050049,192.698212 
	C1882.987793,198.832932 1884.021851,199.790344 1890.396118,199.822617 
	C1898.728027,199.864807 1907.088257,200.260223 1915.384033,199.711899 
	C1923.348389,199.185471 1929.166748,200.908157 1934.675659,207.638550 
	C1947.926880,223.827835 1962.350586,239.054047 1976.204224,254.754318 
	C1993.123779,273.929138 2009.953491,293.183350 2026.798584,312.423584 
	C2029.738770,315.781677 2032.564209,319.240082 2036.218018,323.571289 
	C1919.158936,323.571289 1803.700073,323.571289 1687.483765,323.571289 
	C1688.339966,321.747131 1688.642090,320.418640 1689.432983,319.520813 
	C1701.387573,305.951447 1713.421509,292.451904 1725.405151,278.908020 
	C1733.552124,269.700439 1741.637085,260.437958 1749.772949,251.220474 
	C1764.067871,235.024887 1778.306152,218.777466 1792.796509,202.758453 
	C1794.319458,201.074966 1797.347534,200.053009 1799.722900,199.965515 
	C1808.542847,199.640656 1817.381836,199.834610 1826.213745,199.834412 
	C1840.222534,199.834076 1840.130737,199.835709 1839.913940,185.815826 
	C1839.843262,181.233063 1838.065796,179.073334 1833.365112,179.111191 
	C1819.036011,179.226654 1804.705688,179.197098 1789.578491,179.459839 
M148.376480,410.020813 
	C141.249603,394.907776 139.879807,378.565735 139.311996,362.324432 
	C138.375076,335.525726 137.928040,308.682007 138.340363,281.873657 
	C138.618607,263.782257 139.579285,245.544556 142.291000,227.684479 
	C146.265274,201.508896 156.711792,189.555267 183.485550,186.020493 
	C195.974152,184.371689 208.667664,183.608582 221.267410,183.618103 
	C242.229065,183.633957 263.227722,184.003296 284.140045,185.334763 
	C302.951538,186.532471 315.768372,196.344711 320.646057,215.247955 
	C322.250397,221.465439 324.059174,227.630173 325.742584,233.704041 
	C354.266052,233.704041 382.535309,233.704041 411.267303,233.704041 
	C410.488037,229.615799 409.839935,225.879883 409.058533,222.172028 
	C404.428558,200.201981 397.168091,179.198059 384.677643,160.398041 
	C365.719727,131.863480 338.439026,115.246803 305.797760,106.695824 
	C284.575226,101.136185 262.916199,99.093018 241.032623,98.877213 
	C211.299576,98.584015 181.882050,100.650276 153.361191,109.951599 
	C118.594856,121.289711 92.758362,142.848892 76.722710,176.013702 
	C66.683327,196.777100 61.286686,218.795914 58.010841,241.420715 
	C53.050915,275.676666 52.782360,310.103821 54.826935,344.589050 
	C56.785160,377.617798 61.923763,409.941742 75.952171,440.312042 
	C83.873436,457.460907 94.646561,472.536377 109.003433,484.836578 
	C128.141052,501.232635 150.637131,511.042725 175.124374,515.705627 
	C221.153183,524.470459 267.078156,524.732178 312.354462,510.846527 
	C331.714050,504.909180 348.915771,494.908661 363.808624,481.192474 
	C378.952179,467.245392 390.050781,450.341614 397.777252,431.373657 
	C402.383698,420.065216 405.899658,408.312592 410.168488,396.002106 
	C406.908417,396.002106 405.092987,396.002045 403.277557,396.002106 
	C378.113739,396.002655 352.948395,396.147980 327.787506,395.876862 
	C322.980927,395.825104 320.940369,397.267883 319.499054,401.829041 
	C313.867371,419.650848 303.015930,432.164703 283.361725,434.468506 
	C249.984375,438.380859 216.558380,438.641357 183.267548,433.868591 
	C168.368881,431.732635 155.638519,425.259796 148.376480,410.020813 
M800.286316,189.145721 
	C792.167664,186.733276 784.168823,183.750656 775.908020,182.014618 
	C750.490967,176.673080 724.764465,175.432480 698.946777,178.218964 
	C683.833740,179.850098 669.111267,183.443130 655.928528,191.394638 
	C649.620239,195.199661 643.842041,199.883453 637.329468,204.521210 
	C637.329468,196.317413 637.329468,188.421692 637.329468,180.391922 
	C608.950684,180.391922 581.086548,180.391922 553.348877,180.391922 
	C553.348877,293.199677 553.348877,405.614136 553.348877,517.972534 
	C581.432983,517.972534 609.167847,517.972534 637.373108,517.972534 
	C637.373108,515.442078 637.373108,513.305603 637.373108,511.169098 
	C637.373352,451.676575 637.254028,392.183655 637.459778,332.691864 
	C637.509827,318.218384 638.348328,303.710266 643.199524,289.813019 
	C649.050537,273.051727 660.350098,262.042480 678.346619,261.099792 
	C700.434692,259.942810 722.646912,259.682495 744.743042,260.577362 
	C765.981567,261.437500 779.478210,273.742065 786.395142,293.653503 
	C792.836243,312.195374 793.691223,331.469421 793.774658,350.751221 
	C794.007019,404.410126 793.855164,458.070709 793.855164,511.730621 
	C793.855164,513.827393 793.855225,515.924194 793.855225,517.955811 
	C822.332886,517.955811 850.048523,517.955811 877.925537,517.955811 
	C878.014771,516.228394 878.141479,514.917358 878.141663,513.606384 
	C878.149414,452.114136 878.155029,390.621887 878.138916,329.129639 
	C878.133728,309.098602 876.263550,289.292084 871.076111,269.865723 
	C860.854797,231.588745 838.319458,204.069183 800.286316,189.145721 
M2220.750488,141.500031 
	C2220.750488,128.418900 2220.750488,115.337761 2220.750488,102.401459 
	C2192.028076,102.401459 2164.134033,102.401459 2136.400391,102.401459 
	C2136.400391,241.188049 2136.400391,379.571442 2136.400391,518.010254 
	C2164.563721,518.010254 2192.341797,518.010254 2220.750000,518.010254 
	C2220.750000,392.670349 2220.750000,267.585205 2220.750488,141.500031 
M439.857178,497.499878 
	C439.857178,504.280273 439.857178,511.060669 439.857178,518.084412 
	C468.056671,518.084412 495.626984,518.084412 523.790283,518.084412 
	C523.790283,405.303253 523.790283,292.816681 523.790283,180.323578 
	C495.766968,180.323578 468.022003,180.323578 439.857056,180.323578 
	C439.857056,285.931427 439.857056,391.215668 439.857178,497.499878 
M439.948212,125.500031 
	C439.948212,134.902466 439.948212,144.304886 439.948212,153.664520 
	C468.422699,153.664520 495.985138,153.664520 523.666382,153.664520 
	C523.666382,136.327972 523.666382,119.334755 523.666382,102.331116 
	C495.621338,102.331116 468.062042,102.331116 439.948120,102.331116 
	C439.948120,109.935204 439.948120,117.217628 439.948212,125.500031 
z"/>
<path fill="#FFFFFF" opacity="1.000000" stroke="none" 
	d="
M1428.001709,521.245972 
	C1403.193481,520.806763 1379.483887,517.302185 1356.759033,508.152893 
	C1330.825806,497.711884 1311.565552,480.116119 1298.892578,455.228119 
	C1289.555908,436.892090 1284.965942,417.232910 1283.245239,396.919617 
	C1282.220947,384.828796 1281.939819,372.646820 1281.912476,360.504517 
	C1281.782104,302.505493 1281.852905,244.506042 1281.852173,186.506744 
	C1281.852173,184.541229 1281.852173,182.575714 1281.852173,180.306534 
	C1310.014893,180.306534 1337.753174,180.306534 1366.147583,180.306534 
	C1366.147583,182.354279 1366.147583,184.289658 1366.147583,186.225037 
	C1366.147461,240.557709 1366.076416,294.890533 1366.191284,349.222961 
	C1366.224854,365.077362 1368.278931,380.614471 1373.667847,395.727509 
	C1382.739258,421.167694 1404.445679,437.538177 1431.363403,438.088837 
	C1446.023682,438.388763 1460.698242,438.338867 1475.360840,438.104858 
	C1496.912964,437.760864 1511.357178,427.186523 1517.229492,406.425842 
	C1519.876831,397.066833 1521.709961,387.139587 1521.800903,377.450317 
	C1522.395996,313.964386 1522.413574,250.473038 1522.618530,186.983459 
	C1522.625366,184.850647 1522.619385,182.717819 1522.619385,180.298691 
	C1550.860962,180.298691 1578.611694,180.298691 1606.998291,180.298691 
	C1606.998291,182.139679 1606.998291,183.909332 1606.998291,185.679001 
	C1606.998657,287.344421 1607.039307,389.009888 1606.972290,490.675262 
	C1606.954590,517.413391 1602.955078,543.469849 1591.151978,567.748901 
	C1577.705688,595.407532 1556.767944,615.507690 1528.582520,628.020752 
	C1504.859009,638.552979 1479.827759,641.908447 1454.154175,642.007324 
	C1429.166626,642.103577 1404.157715,642.365356 1379.539673,637.126587 
	C1352.604004,631.394714 1327.741699,621.394165 1308.135376,601.105469 
	C1289.629395,581.955383 1281.573853,558.695251 1281.033569,531.623657 
	C1283.107300,531.623657 1284.857300,531.624329 1286.607178,531.623596 
	C1311.606812,531.612976 1336.606934,531.684998 1361.605225,531.495483 
	C1365.078003,531.469177 1365.754639,532.615051 1365.913452,535.731628 
	C1366.416138,545.599182 1370.228760,550.799927 1379.942383,553.189514 
	C1387.650513,555.085876 1395.657959,556.550476 1403.563232,556.712585 
	C1426.698975,557.186768 1449.855591,557.201172 1472.991821,556.761108 
	C1480.021729,556.627319 1487.112915,554.829590 1493.998535,553.090881 
	C1505.452271,550.198547 1513.205200,542.721436 1517.322144,531.758240 
	C1521.823853,519.770447 1522.437378,507.231110 1522.071167,494.438293 
	C1515.793945,498.790131 1510.062988,503.237915 1503.890137,506.951233 
	C1487.346558,516.903381 1468.877563,519.999146 1449.982422,521.082581 
	C1442.840576,521.492065 1435.661011,521.244141 1428.001709,521.245972 
z"/>
<path fill="#FFFFFF" opacity="1.000000" stroke="none" 
	d="
M1026.000000,377.142700 
	C1013.518311,377.142792 1001.536560,377.142792 989.018250,377.142792 
	C991.323181,389.666626 995.979797,400.729675 1003.311890,410.500275 
	C1017.110107,428.887543 1035.752441,438.003815 1058.716431,438.127258 
	C1073.713257,438.207916 1088.724609,438.463074 1103.705322,437.942596 
	C1126.657104,437.145172 1144.824951,427.079041 1157.652954,407.941681 
	C1159.645386,404.969238 1161.576294,403.750702 1165.168823,403.772888 
	C1189.998535,403.926453 1214.829834,403.851471 1239.660522,403.849976 
	C1241.436035,403.849854 1243.211548,403.849976 1245.475342,403.849976 
	C1243.485962,416.792786 1240.154419,428.541473 1235.304199,439.895264 
	C1222.114990,470.769531 1199.607666,492.336823 1169.188354,505.864655 
	C1152.376343,513.341125 1134.652100,517.750732 1116.421265,519.948364 
	C1084.957764,523.741089 1053.596802,523.277405 1022.627380,515.996338 
	C980.375549,506.062592 947.296326,483.784821 927.281738,444.155029 
	C916.635864,423.075775 911.231262,400.595551 909.054749,377.279205 
	C906.474060,349.632782 907.000366,322.096985 912.924927,294.808044 
	C922.913025,248.802307 947.244141,213.789337 990.739380,193.734009 
	C1010.513977,184.616074 1031.585083,180.037811 1053.237793,178.121933 
	C1079.756470,175.775543 1106.132080,176.569092 1132.265259,181.985840 
	C1155.834106,186.871078 1177.716431,195.662125 1196.865967,210.537231 
	C1216.428589,225.733292 1230.002686,245.366150 1238.914429,268.299469 
	C1248.872070,293.924316 1252.097778,320.710297 1252.140137,348.001831 
	C1252.154907,357.473206 1252.142456,366.944641 1252.142456,377.142639 
	C1176.671265,377.142639 1101.585571,377.142639 1026.000000,377.142700 
M1133.179810,265.279510 
	C1124.229858,261.035461 1114.911499,258.119019 1104.930420,257.932373 
	C1090.784058,257.667877 1076.633667,257.344238 1062.487427,257.432648 
	C1047.467896,257.526489 1033.128540,260.461243 1020.395325,269.077606 
	C1007.165283,278.030212 998.428589,290.300140 992.870605,305.598877 
	C1051.042603,305.598877 1108.715454,305.598877 1166.835571,305.598877 
	C1160.394653,288.156158 1150.009521,274.535156 1133.179810,265.279510 
z"/>
<path fill="#FFFFFF" opacity="1.000000" stroke="none" 
	d="
M1789.977173,179.341919 
	C1804.705688,179.197098 1819.036011,179.226654 1833.365112,179.111191 
	C1838.065796,179.073334 1839.843262,181.233063 1839.913940,185.815826 
	C1840.130737,199.835709 1840.222534,199.834076 1826.213745,199.834412 
	C1817.381836,199.834610 1808.542847,199.640656 1799.722900,199.965515 
	C1797.347534,200.053009 1794.319458,201.074966 1792.796509,202.758453 
	C1778.306152,218.777466 1764.067871,235.024887 1749.772949,251.220474 
	C1741.637085,260.437958 1733.552124,269.700439 1725.405151,278.908020 
	C1713.421509,292.451904 1701.387573,305.951447 1689.432983,319.520813 
	C1688.642090,320.418640 1688.339966,321.747131 1687.483765,323.571289 
	C1803.700073,323.571289 1919.158936,323.571289 2036.218018,323.571289 
	C2032.564209,319.240082 2029.738770,315.781677 2026.798584,312.423584 
	C2009.953491,293.183350 1993.123779,273.929138 1976.204224,254.754318 
	C1962.350586,239.054047 1947.926880,223.827835 1934.675659,207.638550 
	C1929.166748,200.908157 1923.348389,199.185471 1915.384033,199.711899 
	C1907.088257,200.260223 1898.728027,199.864807 1890.396118,199.822617 
	C1884.021851,199.790344 1882.987793,198.832932 1883.050049,192.698212 
	C1883.182495,179.629837 1880.489258,178.948059 1896.489258,179.123581 
	C1907.152832,179.240570 1917.827393,178.904755 1928.478638,179.284912 
	C1931.569214,179.395203 1935.268188,180.501602 1937.544556,182.472473 
	C1953.623779,196.393646 1969.326294,210.748459 1985.300903,224.792099 
	C2005.135376,242.228989 2025.143555,259.467926 2045.022095,276.854889 
	C2054.527344,285.168762 2063.922852,293.608490 2073.337402,302.025238 
	C2080.648193,308.560944 2088.034424,315.021759 2095.101318,321.813080 
	C2096.674805,323.325287 2097.857910,326.080658 2097.863037,328.266693 
	C2098.006348,391.589355 2097.944092,454.912476 2098.045898,518.235291 
	C2098.052979,522.621643 2096.565186,523.953735 2092.235596,523.945618 
	C2033.078979,523.834290 1973.921753,523.851624 1914.764771,523.914490 
	C1910.723145,523.918762 1908.100586,522.754883 1905.934326,518.962524 
	C1896.257202,502.021790 1886.220825,485.286011 1876.289795,468.490692 
	C1872.340454,461.811462 1868.341919,455.161224 1864.337769,448.514587 
	C1862.208496,444.979950 1860.296509,444.890381 1858.260864,448.387085 
	C1848.029297,465.963135 1837.913940,483.607086 1827.643921,501.160553 
	C1824.064819,507.277802 1820.000000,513.112244 1816.461670,519.251526 
	C1814.315430,522.975525 1811.282593,523.922363 1807.307251,523.912537 
	C1778.312256,523.840515 1749.316772,523.873413 1720.321533,523.872742 
	C1690.659668,523.872131 1660.997925,523.874573 1631.336060,523.867126 
	C1624.987549,523.865540 1624.209961,523.131775 1624.208008,516.615295 
	C1624.188843,454.458771 1624.217407,392.302185 1624.152344,330.145721 
	C1624.147461,325.585846 1625.907837,322.357605 1629.332520,319.421326 
	C1642.069458,308.500977 1654.632202,297.377167 1667.246826,286.314301 
	C1683.109253,272.403137 1698.988892,258.511108 1714.802979,244.545120 
	C1725.142090,235.414291 1735.271484,226.043930 1745.686401,217.001450 
	C1760.223511,204.379745 1774.939209,191.963806 1789.977173,179.341919 
M1790.500000,361.019592 
	C1750.198853,361.021332 1709.897583,361.019348 1669.596436,361.028351 
	C1662.618042,361.029907 1662.057373,361.563843 1662.055420,368.320984 
	C1662.044800,405.124939 1662.046265,441.928925 1662.055054,478.732880 
	C1662.056641,484.903656 1663.021362,485.887909 1669.347534,485.908875 
	C1682.337036,485.951935 1695.326782,485.926666 1708.316406,485.926483 
	C1729.632690,485.926208 1750.950073,486.014709 1772.264160,485.800049 
	C1774.771606,485.774780 1778.541138,484.814911 1779.562988,483.041962 
	C1789.954956,465.010193 1799.941772,446.743622 1809.949219,428.491974 
	C1815.330811,418.676819 1820.452393,408.719208 1825.835693,398.905060 
	C1831.773560,388.079437 1837.941772,377.380035 1843.876953,366.552948 
	C1846.258667,362.208374 1845.473877,361.045624 1840.460938,361.034760 
	C1824.140625,360.999481 1807.820312,361.020386 1790.500000,361.019592 
M2036.439697,377.890869 
	C2041.130371,372.821075 2045.821045,367.751282 2050.511719,362.681488 
	C2050.166260,362.120605 2049.820557,361.559692 2049.474854,360.998779 
	C2042.217651,360.998779 2034.954102,361.180115 2027.706177,360.922394 
	C2024.071289,360.793152 2021.450195,361.909271 2018.910278,364.483307 
	C2004.532715,379.053650 1990.020630,393.491333 1975.546631,407.966461 
	C1960.729126,422.785034 1945.866577,437.558868 1931.142456,452.469635 
	C1929.830078,453.798615 1928.207764,456.560211 1928.748535,457.686951 
	C1931.447876,463.309540 1934.821899,468.608185 1938.556519,475.052643 
	C1971.499512,442.355377 2003.716797,410.378571 2036.439697,377.890869 
M2029.499146,440.998352 
	C2038.688965,431.808105 2047.899170,422.638062 2057.044922,413.404022 
	C2058.310059,412.126526 2060.165283,410.554260 2060.200439,409.081879 
	C2060.406250,400.358337 2060.160156,391.623901 2060.023193,382.893768 
	C2060.020752,382.742462 2059.480713,382.599548 2058.577637,382.140839 
	C2054.884766,385.497955 2050.847900,388.870361 2047.155151,392.585083 
	C2038.825195,400.964752 2030.788330,409.637238 2022.412354,417.969513 
	C2001.513794,438.759064 1980.477783,459.410614 1959.563599,480.184479 
	C1958.508301,481.232697 1958.079956,482.912048 1957.359741,484.297546 
	C1958.976929,484.847778 1960.580322,485.818756 1962.213745,485.872528 
	C1968.039185,486.064331 1973.907471,486.306671 1979.692871,485.787842 
	C1982.537109,485.532745 1985.896973,484.330872 1987.893433,482.393219 
	C2001.761719,468.933105 2015.333008,455.167053 2029.499146,440.998352 
M1923.501343,403.031860 
	C1919.758301,406.779907 1916.296509,410.877533 1912.194092,414.179199 
	C1907.967163,417.581238 1907.725586,421.017456 1910.297241,425.282501 
	C1911.923950,427.980469 1913.411621,430.764038 1915.088623,433.429382 
	C1917.992065,438.043884 1919.136230,438.198853 1922.974976,434.341064 
	C1929.416626,427.867279 1935.708008,421.243317 1942.176758,414.797028 
	C1957.765869,399.262024 1973.444580,383.816864 1989.018188,368.266479 
	C1990.884888,366.402740 1992.325073,364.111969 1994.760986,360.999268 
	C1985.380005,360.999268 1977.570190,360.749695 1969.792725,361.142975 
	C1967.277954,361.270081 1964.262085,362.482513 1962.474243,364.223938 
	C1949.510010,376.851013 1936.801514,389.740662 1923.501343,403.031860 
M1913.500000,360.995422 
	C1902.866333,360.996399 1892.232666,360.968933 1881.599121,361.010986 
	C1876.675659,361.030487 1875.900757,362.363678 1878.183960,366.543701 
	C1882.854980,375.095184 1887.420654,383.706085 1892.222412,392.183319 
	C1894.014771,395.348053 1896.345459,398.208008 1898.805786,401.746277 
	C1911.829590,387.760803 1925.583374,376.144592 1936.983398,362.297424 
	C1936.745361,361.863403 1936.507202,361.429413 1936.269165,360.995392 
	C1929.012817,360.995392 1921.756348,360.995392 1913.500000,360.995422 
M2045.039185,451.539429 
	C2034.298340,462.290710 2023.557495,473.041992 2011.973145,484.637573 
	C2014.574585,485.320190 2015.764404,485.898193 2016.957275,485.904572 
	C2029.938965,485.974335 2042.921021,485.957031 2055.903076,485.957581 
	C2059.443848,485.957733 2060.955078,484.134308 2060.940674,480.640350 
	C2060.889404,468.157837 2060.972168,455.674561 2060.853271,443.192993 
	C2060.841064,441.916077 2059.814697,440.648834 2059.258789,439.377075 
	C2057.979736,439.968109 2056.448730,440.287842 2055.467285,441.199493 
	C2052.055664,444.369171 2048.834473,447.743988 2045.039185,451.539429 
z"/>
<path fill="#FFFFFF" opacity="1.000000" stroke="none" 
	d="
M148.550720,410.352936 
	C155.638519,425.259796 168.368881,431.732635 183.267548,433.868591 
	C216.558380,438.641357 249.984375,438.380859 283.361725,434.468506 
	C303.015930,432.164703 313.867371,419.650848 319.499054,401.829041 
	C320.940369,397.267883 322.980927,395.825104 327.787506,395.876862 
	C352.948395,396.147980 378.113739,396.002655 403.277557,396.002106 
	C405.092987,396.002045 406.908417,396.002106 410.168488,396.002106 
	C405.899658,408.312592 402.383698,420.065216 397.777252,431.373657 
	C390.050781,450.341614 378.952179,467.245392 363.808624,481.192474 
	C348.915771,494.908661 331.714050,504.909180 312.354462,510.846527 
	C267.078156,524.732178 221.153183,524.470459 175.124374,515.705627 
	C150.637131,511.042725 128.141052,501.232635 109.003433,484.836578 
	C94.646561,472.536377 83.873436,457.460907 75.952171,440.312042 
	C61.923763,409.941742 56.785160,377.617798 54.826935,344.589050 
	C52.782360,310.103821 53.050915,275.676666 58.010841,241.420715 
	C61.286686,218.795914 66.683327,196.777100 76.722710,176.013702 
	C92.758362,142.848892 118.594856,121.289711 153.361191,109.951599 
	C181.882050,100.650276 211.299576,98.584015 241.032623,98.877213 
	C262.916199,99.093018 284.575226,101.136185 305.797760,106.695824 
	C338.439026,115.246803 365.719727,131.863480 384.677643,160.398041 
	C397.168091,179.198059 404.428558,200.201981 409.058533,222.172028 
	C409.839935,225.879883 410.488037,229.615799 411.267303,233.704041 
	C382.535309,233.704041 354.266052,233.704041 325.742584,233.704041 
	C324.059174,227.630173 322.250397,221.465439 320.646057,215.247955 
	C315.768372,196.344711 302.951538,186.532471 284.140045,185.334763 
	C263.227722,184.003296 242.229065,183.633957 221.267410,183.618103 
	C208.667664,183.608582 195.974152,184.371689 183.485550,186.020493 
	C156.711792,189.555267 146.265274,201.508896 142.291000,227.684479 
	C139.579285,245.544556 138.618607,263.782257 138.340363,281.873657 
	C137.928040,308.682007 138.375076,335.525726 139.311996,362.324432 
	C139.879807,378.565735 141.249603,394.907776 148.550720,410.352936 
z"/>
<path fill="#FFFFFF" opacity="1.000000" stroke="none" 
	d="
M800.657104,189.257553 
	C838.319458,204.069183 860.854797,231.588745 871.076111,269.865723 
	C876.263550,289.292084 878.133728,309.098602 878.138916,329.129639 
	C878.155029,390.621887 878.149414,452.114136 878.141663,513.606384 
	C878.141479,514.917358 878.014771,516.228394 877.925537,517.955811 
	C850.048523,517.955811 822.332886,517.955811 793.855225,517.955811 
	C793.855225,515.924194 793.855164,513.827393 793.855164,511.730621 
	C793.855164,458.070709 794.007019,404.410126 793.774658,350.751221 
	C793.691223,331.469421 792.836243,312.195374 786.395142,293.653503 
	C779.478210,273.742065 765.981567,261.437500 744.743042,260.577362 
	C722.646912,259.682495 700.434692,259.942810 678.346619,261.099792 
	C660.350098,262.042480 649.050537,273.051727 643.199524,289.813019 
	C638.348328,303.710266 637.509827,318.218384 637.459778,332.691864 
	C637.254028,392.183655 637.373352,451.676575 637.373108,511.169098 
	C637.373108,513.305603 637.373108,515.442078 637.373108,517.972534 
	C609.167847,517.972534 581.432983,517.972534 553.348877,517.972534 
	C553.348877,405.614136 553.348877,293.199677 553.348877,180.391922 
	C581.086548,180.391922 608.950684,180.391922 637.329468,180.391922 
	C637.329468,188.421692 637.329468,196.317413 637.329468,204.521210 
	C643.842041,199.883453 649.620239,195.199661 655.928528,191.394638 
	C669.111267,183.443130 683.833740,179.850098 698.946777,178.218964 
	C724.764465,175.432480 750.490967,176.673080 775.908020,182.014618 
	C784.168823,183.750656 792.167664,186.733276 800.657104,189.257553 
z"/>
<path fill="#FFFFFF" opacity="1.000000" stroke="none" 
	d="
M2220.750244,142.000031 
	C2220.750000,267.585205 2220.750000,392.670349 2220.750000,518.010254 
	C2192.341797,518.010254 2164.563721,518.010254 2136.400391,518.010254 
	C2136.400391,379.571442 2136.400391,241.188049 2136.400391,102.401459 
	C2164.134033,102.401459 2192.028076,102.401459 2220.750488,102.401459 
	C2220.750488,115.337761 2220.750488,128.418900 2220.750244,142.000031 
z"/>
<path fill="#FFFFFF" opacity="1.000000" stroke="none" 
	d="
M439.857117,496.999878 
	C439.857056,391.215668 439.857056,285.931427 439.857056,180.323578 
	C468.022003,180.323578 495.766968,180.323578 523.790283,180.323578 
	C523.790283,292.816681 523.790283,405.303253 523.790283,518.084412 
	C495.626984,518.084412 468.056671,518.084412 439.857178,518.084412 
	C439.857178,511.060669 439.857178,504.280273 439.857117,496.999878 
z"/>
<path fill="#FFFFFF" opacity="1.000000" stroke="none" 
	d="
M439.948181,125.000038 
	C439.948120,117.217628 439.948120,109.935204 439.948120,102.331116 
	C468.062042,102.331116 495.621338,102.331116 523.666382,102.331116 
	C523.666382,119.334755 523.666382,136.327972 523.666382,153.664520 
	C495.985138,153.664520 468.422699,153.664520 439.948212,153.664520 
	C439.948212,144.304886 439.948212,134.902466 439.948181,125.000038 
z"/>
<path fill="#000000" opacity="0.000000" stroke="none" 
	d="
M1133.478516,265.500549 
	C1150.009521,274.535156 1160.394653,288.156158 1166.835571,305.598877 
	C1108.715454,305.598877 1051.042603,305.598877 992.870605,305.598877 
	C998.428589,290.300140 1007.165283,278.030212 1020.395325,269.077606 
	C1033.128540,260.461243 1047.467896,257.526489 1062.487427,257.432648 
	C1076.633667,257.344238 1090.784058,257.667877 1104.930420,257.932373 
	C1114.911499,258.119019 1124.229858,261.035461 1133.478516,265.500549 
z"/>
<path fill="#F2F1EF" opacity="0.000000" stroke="none" 
	d="
M1791.000000,361.019623 
	C1807.820312,361.020386 1824.140625,360.999481 1840.460938,361.034760 
	C1845.473877,361.045624 1846.258667,362.208374 1843.876953,366.552948 
	C1837.941772,377.380035 1831.773560,388.079437 1825.835693,398.905060 
	C1820.452393,408.719208 1815.330811,418.676819 1809.949219,428.491974 
	C1799.941772,446.743622 1789.954956,465.010193 1779.562988,483.041962 
	C1778.541138,484.814911 1774.771606,485.774780 1772.264160,485.800049 
	C1750.950073,486.014709 1729.632690,485.926208 1708.316406,485.926483 
	C1695.326782,485.926666 1682.337036,485.951935 1669.347534,485.908875 
	C1663.021362,485.887909 1662.056641,484.903656 1662.055054,478.732880 
	C1662.046265,441.928925 1662.044800,405.124939 1662.055420,368.320984 
	C1662.057373,361.563843 1662.618042,361.029907 1669.596436,361.028351 
	C1709.897583,361.019348 1750.198853,361.021332 1791.000000,361.019623 
z"/>
<path fill="#EEEEEC" opacity="0.000000" stroke="none" 
	d="
M2036.186768,378.146301 
	C2003.716797,410.378571 1971.499512,442.355377 1938.556519,475.052643 
	C1934.821899,468.608185 1931.447876,463.309540 1928.748535,457.686951 
	C1928.207764,456.560211 1929.830078,453.798615 1931.142456,452.469635 
	C1945.866577,437.558868 1960.729126,422.785034 1975.546631,407.966461 
	C1990.020630,393.491333 2004.532715,379.053650 2018.910278,364.483307 
	C2021.450195,361.909271 2024.071289,360.793152 2027.706177,360.922394 
	C2034.954102,361.180115 2042.217651,360.998779 2049.474854,360.998779 
	C2049.820557,361.559692 2050.166260,362.120605 2050.511719,362.681488 
	C2045.821045,367.751282 2041.130371,372.821075 2036.186768,378.146301 
z"/>
<path fill="#EEEDEB" opacity="0.000000" stroke="none" 
	d="
M2029.249512,441.248779 
	C2015.333008,455.167053 2001.761719,468.933105 1987.893433,482.393219 
	C1985.896973,484.330872 1982.537109,485.532745 1979.692871,485.787842 
	C1973.907471,486.306671 1968.039185,486.064331 1962.213745,485.872528 
	C1960.580322,485.818756 1958.976929,484.847778 1957.359741,484.297546 
	C1958.079956,482.912048 1958.508301,481.232697 1959.563599,480.184479 
	C1980.477783,459.410614 2001.513794,438.759064 2022.412354,417.969513 
	C2030.788330,409.637238 2038.825195,400.964752 2047.155151,392.585083 
	C2050.847900,388.870361 2054.884766,385.497955 2058.577637,382.140839 
	C2059.480713,382.599548 2060.020752,382.742462 2060.023193,382.893768 
	C2060.160156,391.623901 2060.406250,400.358337 2060.200439,409.081879 
	C2060.165283,410.554260 2058.310059,412.126526 2057.044922,413.404022 
	C2047.899170,422.638062 2038.688965,431.808105 2029.249512,441.248779 
z"/>
<path fill="#EEEDEB" opacity="0.000000" stroke="none" 
	d="
M1923.756714,402.789520 
	C1936.801514,389.740662 1949.510010,376.851013 1962.474243,364.223938 
	C1964.262085,362.482513 1967.277954,361.270081 1969.792725,361.142975 
	C1977.570190,360.749695 1985.380005,360.999268 1994.760986,360.999268 
	C1992.325073,364.111969 1990.884888,366.402740 1989.018188,368.266479 
	C1973.444580,383.816864 1957.765869,399.262024 1942.176758,414.797028 
	C1935.708008,421.243317 1929.416626,427.867279 1922.974976,434.341064 
	C1919.136230,438.198853 1917.992065,438.043884 1915.088623,433.429382 
	C1913.411621,430.764038 1911.923950,427.980469 1910.297241,425.282501 
	C1907.725586,421.017456 1907.967163,417.581238 1912.194092,414.179199 
	C1916.296509,410.877533 1919.758301,406.779907 1923.756714,402.789520 
z"/>
<path fill="#EEEDEB" opacity="0.000000" stroke="none" 
	d="
M1914.000000,360.995422 
	C1921.756348,360.995392 1929.012817,360.995392 1936.269165,360.995392 
	C1936.507202,361.429413 1936.745361,361.863403 1936.983398,362.297424 
	C1925.583374,376.144592 1911.829590,387.760803 1898.805786,401.746277 
	C1896.345459,398.208008 1894.014771,395.348053 1892.222412,392.183319 
	C1887.420654,383.706085 1882.854980,375.095184 1878.183960,366.543701 
	C1875.900757,362.363678 1876.675659,361.030487 1881.599121,361.010986 
	C1892.232666,360.968933 1902.866333,360.996399 1914.000000,360.995422 
z"/>
<path fill="#EBEAE9" opacity="0.000000" stroke="none" 
	d="
M2045.290039,451.290131 
	C2048.834473,447.743988 2052.055664,444.369171 2055.467285,441.199493 
	C2056.448730,440.287842 2057.979736,439.968109 2059.258789,439.377075 
	C2059.814697,440.648834 2060.841064,441.916077 2060.853271,443.192993 
	C2060.972168,455.674561 2060.889404,468.157837 2060.940674,480.640350 
	C2060.955078,484.134308 2059.443848,485.957733 2055.903076,485.957581 
	C2042.921021,485.957031 2029.938965,485.974335 2016.957275,485.904572 
	C2015.764404,485.898193 2014.574585,485.320190 2011.973145,484.637573 
	C2023.557495,473.041992 2034.298340,462.290710 2045.290039,451.290131 
z"/>
</svg>