<?xml version="1.0" standalone="no"?>
<!DOCTYPE svg PUBLIC "-//W3C//DTD SVG 20010904//EN"
 "http://www.w3.org/TR/2001/REC-SVG-20010904/DTD/svg10.dtd">
<svg version="1.0" xmlns="http://www.w3.org/2000/svg"
 width="494.000000pt" height="494.000000pt" viewBox="0 0 494.000000 494.000000"
 preserveAspectRatio="xMidYMid meet">

<g transform="translate(0.000000,494.000000) scale(0.100000,-0.100000)"
fill="#FFFFFF" stroke="none">
<path d="M1743 4118 c-18 -11 -228 -190 -243 -209 -3 -3 -41 -36 -85 -74 -70
-60 -123 -108 -184 -165 -9 -8 -29 -25 -45 -37 -15 -12 -63 -54 -106 -93 -43
-38 -97 -87 -121 -108 -24 -20 -84 -73 -133 -117 -49 -44 -112 -100 -140 -124
-28 -24 -67 -57 -86 -75 -19 -17 -89 -78 -155 -136 -66 -58 -125 -109 -131
-115 -6 -5 -44 -39 -84 -75 -41 -36 -84 -75 -97 -87 l-23 -22 2 -998 3 -998
928 -3 c611 -1 935 1 947 8 15 8 88 121 145 225 6 11 22 38 36 60 14 22 28 47
32 55 4 8 11 22 17 30 5 8 60 101 121 205 62 105 117 193 122 197 12 8 37 -1
37 -13 0 -5 77 -137 170 -294 94 -157 170 -287 170 -290 0 -14 95 -157 113
-170 19 -13 138 -15 942 -15 703 0 924 3 933 12 9 9 12 245 12 999 l0 987 -72
63 c-40 35 -75 67 -78 70 -6 7 -93 84 -185 164 -38 33 -112 98 -165 145 -104
92 -150 133 -255 225 -38 33 -134 118 -214 189 -209 185 -276 244 -366 323
-44 39 -116 103 -160 142 -44 39 -96 83 -116 97 l-36 25 -243 0 c-187 0 -245
-3 -252 -13 -9 -15 -11 -139 -2 -162 5 -14 34 -16 219 -16 l213 0 69 -77 c37
-43 71 -80 74 -83 7 -6 86 -96 164 -185 33 -38 67 -76 75 -85 8 -9 40 -45 70
-80 61 -72 58 -69 115 -131 22 -24 85 -96 140 -159 55 -63 105 -119 111 -125
6 -5 53 -59 105 -119 52 -59 111 -127 131 -150 20 -22 37 -44 38 -48 0 -5
-785 -8 -1745 -8 -966 0 -1745 4 -1745 9 0 7 68 91 90 111 8 7 200 226 285
324 39 45 86 99 106 121 44 48 121 135 171 194 21 24 70 78 108 121 39 43 80
91 92 106 12 15 33 39 46 53 14 14 56 62 95 106 39 44 80 85 91 92 15 9 83 12
223 13 233 0 223 -4 223 97 0 97 10 94 -260 99 -181 4 -240 2 -257 -8z m567
-1824 c0 -9 -21 -55 -47 -103 -59 -108 -69 -127 -97 -176 -27 -49 -121 -221
-187 -342 -17 -32 -35 -62 -39 -68 -7 -10 -41 -72 -123 -225 -22 -41 -54 -100
-72 -130 -18 -30 -34 -60 -36 -65 -2 -6 -17 -34 -34 -63 l-30 -52 -572 0
c-562 0 -572 0 -583 20 -7 14 -10 205 -8 610 3 512 5 592 18 600 9 6 365 10
913 10 819 0 897 -1 897 -16z m910 4 c0 -7 -83 -95 -185 -197 -212 -214 -190
-207 -260 -76 -21 39 -41 75 -45 80 -27 36 -100 187 -95 195 10 15 585 13 585
-2z m566 1 c7 -12 -709 -735 -736 -742 -12 -3 -23 9 -40 42 -13 25 -29 53 -35
61 -6 8 -17 28 -23 43 -12 28 -10 31 277 318 l290 289 130 0 c83 0 132 -4 137
-11z m570 0 c4 -7 -222 -240 -551 -568 l-557 -556 -16 24 c-9 13 -34 55 -55
93 l-38 69 476 475 475 474 129 0 c85 0 132 -4 137 -11z m104 -346 l0 -136
-373 -374 -374 -373 -136 0 c-103 0 -137 3 -137 13 0 14 978 992 1000 1000 8
3 16 6 18 6 1 1 2 -60 2 -136z m-2 -655 l-3 -223 -215 -3 c-118 -1 -221 0
-229 3 -10 4 53 73 204 225 225 121 226 220 233 220 10 0 12 -47 10 -222z"/>
</g>
</svg>
